<?xml version="1.0" standalone="no"?>
<!DOCTYPE svg PUBLIC "-//W3C//DTD SVG 20010904//EN"
 "http://www.w3.org/TR/2001/REC-SVG-20010904/DTD/svg10.dtd">
<svg version="1.0" xmlns="http://www.w3.org/2000/svg"
 width="500.000000pt" height="500.000000pt" viewBox="0 0 500.000000 500.000000"
 preserveAspectRatio="xMidYMid meet">

<g transform="translate(0.000000,500.000000) scale(0.100000,-0.100000)"
fill="#000000" stroke="none">
<path d="M1820 3477 c-50 -26 -50 -18 -50 -703 0 -623 -1 -642 -20 -666 -49
-63 -253 -64 -312 -1 -22 24 -23 31 -28 245 -5 203 -6 221 -24 234 -16 11 -69
14 -266 14 -238 0 -248 -1 -266 -21 -18 -20 -19 -40 -19 -313 0 -214 4 -306
14 -346 60 -242 240 -353 616 -381 157 -11 381 0 494 27 180 41 291 110 363
225 9 14 27 59 40 100 l23 74 0 737 0 737 -23 23 c-22 23 -27 23 -270 26 -186
2 -253 -1 -272 -11z"/>
<path d="M3140 3484 c-176 -28 -262 -66 -343 -153 -94 -102 -101 -130 -105
-431 -3 -215 -1 -265 13 -317 33 -123 125 -213 258 -255 47 -15 504 -88 548
-88 23 0 49 -42 49 -80 0 -27 -7 -47 -20 -60 -19 -19 -33 -20 -409 -20 -378 0
-389 -1 -415 -21 l-26 -20 0 -209 c0 -190 2 -210 19 -231 l19 -24 509 0 c448
0 516 2 576 17 190 49 312 167 347 335 7 32 10 144 8 290 -3 223 -5 242 -27
298 -30 74 -102 153 -173 187 -78 38 -148 54 -403 88 -259 35 -270 39 -270
110 0 76 -10 74 393 80 196 3 358 7 359 8 1 1 10 16 18 33 14 25 16 63 13 224
-3 187 -4 195 -26 217 l-23 23 -432 1 c-237 1 -443 0 -457 -2z"/>
</g>
</svg>
